HIERARCHY
ROOT Hips
{
  OFFSET 0.000000 0.000000 0.000000
  CHANNELS 6 Xposition Yposition Zposition Zrotation Xrotation Yrotation
  JOINT LeftUpLeg
  {
    OFFSET 0.065432 -0.099661 -0.020582
    CHANNELS 3 Zrotation Xrotation Yrotation
    JOINT LeftLeg
    {
      OFFSET 0.056970 -0.345381 0.044166
      CHANNELS 3 Zrotation Xrotation Yrotation
      JOINT LeftFoot
      {
        OFFSET -0.052934 -0.375423 -0.109712
        CHANNELS 3 Zrotation Xrotation Yrotation
        JOINT LeftToeBase
        {
          OFFSET 0.068388 -0.064312 0.103537
          CHANNELS 3 Zrotation Xrotation Yrotation
          End Site
          {
            OFFSET 0 0 0.1
          }
        }
      }
    }
  }
  JOINT RightUpLeg
  {
    OFFSET -0.067776 -0.121819 -0.013444
    CHANNELS 3 Zrotation Xrotation Yrotation
    JOINT RightLeg
    {
      OFFSET -0.045917 -0.327397 0.068270
      CHANNELS 3 Zrotation Xrotation Yrotation
      JOINT RightFoot
      {
        OFFSET 0.003570 -0.396248 -0.103802
        CHANNELS 3 Zrotation Xrotation Yrotation
        JOINT RightToeBase
        {
          OFFSET -0.030147 -0.052765 0.117660
          CHANNELS 3 Zrotation Xrotation Yrotation
          End Site
          {
            OFFSET 0 0 0.1
          }
        }
      }
    }
  }
  JOINT Spine
  {
    OFFSET 0.000045 0.078755 -0.026575
    CHANNELS 3 Zrotation Xrotation Yrotation
    JOINT Spine1
    {
      OFFSET 0.018121 0.143084 0.044955
      CHANNELS 3 Zrotation Xrotation Yrotation
      JOINT Spine2
      {
        OFFSET 0.004261 0.069518 0.010841
        CHANNELS 3 Zrotation Xrotation Yrotation
        JOINT Neck
        {
          OFFSET -0.000134 0.186032 0.008825
          CHANNELS 3 Zrotation Xrotation Yrotation
          JOINT RightArm
          {
            OFFSET 0.020542 0.056567 0.060932
            CHANNELS 3 Zrotation Xrotation Yrotation
            End Site
            {
              OFFSET 0 0 0.1
            }
          }
        }
        JOINT RightShoulder
        {
          OFFSET 0.069293 0.099220 -0.003690
          CHANNELS 3 Zrotation Xrotation Yrotation
          JOINT LeftArm
          {
            OFFSET 0.114310 -0.008887 -0.016547
            CHANNELS 3 Zrotation Xrotation Yrotation
            JOINT LeftForeArm
            {
              OFFSET 0.048013 -0.234416 0.007784
              CHANNELS 3 Zrotation Xrotation Yrotation
              JOINT LeftHand
              {
                OFFSET -0.007529 -0.161387 0.050731
                CHANNELS 3 Zrotation Xrotation Yrotation
                End Site
                {
                  OFFSET 0 0 0.1
                }
              }
            }
          }
        }
        JOINT LeftShoulder
        {
          OFFSET -0.073321 0.118213 0.008872
          CHANNELS 3 Zrotation Xrotation Yrotation
          JOINT RightForeArm
          {
            OFFSET -0.111503 -0.009509 -0.005039
            CHANNELS 3 Zrotation Xrotation Yrotation
            JOINT RightHand
            {
              OFFSET -0.065941 -0.216917 -0.051007
              CHANNELS 3 Zrotation Xrotation Yrotation
              JOINT LeftHandEnd
              {
                OFFSET 0.046242 -0.160800 0.091727
                CHANNELS 3 Zrotation Xrotation Yrotation
                End Site
                {
                  OFFSET 0 0 0.1
                }
              }
            }
          }
        }
      }
    }
  }
}
MOTION
Frames: 5
Frame Time: 0.05000000
0.225350 0.943546 0.688681 -0.000000 0.000000 -25.110959 -51.418589 -32.002417 36.446200 67.311484 -18.411228 -18.201368 -25.104163 15.216869 2.556357 0.075763 14.476667 52.594393 57.414597 24.529663 18.190763 -64.907791 -11.117310 -5.271360 -2.049512 27.314228 1.449880 3.278537 9.926463 6.947139 13.354736 -13.053301 26.645694 -21.587622 31.045837 7.271564 8.783274 -8.691987 0.795183 3.057236 -3.750515 0.119759 16.744803 -43.181627 39.841947 49.868588 27.277435 30.009765 32.802332 15.848261 -35.792980 -70.093481 -30.895267 -19.482715 -6.782228 -19.173319 0.736800 -54.039529 -29.398934 29.333700 -27.995641 -3.869006 -26.260659 63.383208 26.601242 -8.149984 48.363402 -29.065202 8.289990
0.237535 0.952063 0.704924 -0.000000 0.000000 -25.325438 -51.587140 -32.453751 36.787978 67.335254 -18.351340 -18.518705 -24.532581 14.932748 2.424692 -0.700502 15.401974 53.083003 57.214258 24.695053 18.413653 -64.501651 -10.543070 -5.271689 -2.455304 27.086159 1.520682 3.215106 10.423672 7.749625 13.241073 -12.534188 26.785996 -21.888374 30.646294 7.242290 8.340885 -8.565652 0.699376 3.285283 -3.198802 0.129586 17.277995 -44.064583 39.661296 50.192932 27.389073 29.647692 32.833063 14.132958 -33.823383 -66.845650 -30.906383 -16.190341 -9.926270 -34.197559 1.842397 -53.687460 -29.832356 30.194510 -29.573341 -4.714057 -28.250046 61.545053 27.054902 -8.433922 59.290907 -33.292039 11.281573
0.243838 0.944715 0.716791 -0.000000 0.000000 -25.539989 -50.908651 -32.734156 37.809420 67.051803 -18.918210 -19.041166 -24.791324 15.306914 2.501107 -0.539496 14.602088 53.301755 57.452848 24.944485 18.414406 -64.925198 -10.830749 -5.273918 -2.254391 27.780905 1.515578 3.308998 9.127912 7.192611 14.433515 -13.193962 27.217996 -22.340362 31.076905 7.495351 7.817414 -7.670263 0.614464 4.031713 -3.886498 0.187447 16.959695 -43.344257 40.681696 50.327239 27.607001 29.676984 31.432701 16.598227 -35.599709 -73.044846 -31.620336 -21.138368 -3.828967 -13.494996 0.600888 -54.162467 -29.738753 29.342633 -25.075347 -3.724552 -25.364230 65.327417 31.914321 -7.813543 36.217164 -19.634329 6.284176
0.250011 0.940036 0.721962 -0.000000 0.000000 -25.754603 -50.712846 -32.613017 37.620048 67.041280 -18.567150 -18.674944 -25.116467 15.050255 2.492275 0.045217 14.221465 53.020673 57.207674 25.292372 18.976165 -65.202631 -10.671920 -5.647297 -2.025994 27.459468 1.495386 3.526506 8.806545 6.823153 14.808824 -13.255744 27.484855 -22.924385 31.116467 7.728307 7.786703 -7.679804 0.579983 4.603945 -4.270060 0.218960 16.762035 -42.560519 41.249276 50.156635 28.157299 30.619089 32.952870 18.364466 -38.916708 -74.416195 -32.788321 -23.952329 -1.556916 -3.967304 0.186976 -54.369301 -30.020616 29.382793 -24.725881 -2.984876 -24.726731 65.291259 29.199510 -7.641226 32.375543 -18.818254 4.708592
0.246668 0.951525 0.725356 -0.000000 0.000000 -25.969279 -51.104942 -33.086497 37.734550 67.663151 -18.036562 -18.784506 -24.691968 14.633725 2.232865 -1.222468 15.595846 53.668574 57.080539 25.550239 19.293237 -64.806140 -10.208581 -5.763112 -2.070859 27.519506 1.425085 2.996017 9.669310 7.613179 14.200868 -12.412904 27.521465 -22.084264 30.516651 7.180489 6.066536 -6.966908 0.344269 5.600564 -4.702164 0.306113 16.880528 -43.475722 40.317930 50.607928 28.529564 30.569666 31.155307 15.892995 -36.176578 -71.362810 -32.753888 -20.157710 -6.004919 -19.941958 0.863434 -54.124315 -30.204204 29.717896 -26.112369 -5.425878 -27.323209 63.040223 29.291923 -8.639666 47.715004 -25.482446 8.198045
